<svg width="78" height="71" viewBox="0 0 78 71" fill="none" xmlns="http://www.w3.org/2000/svg">
<path fill-rule="evenodd" clip-rule="evenodd" d="M33.2854 20.1428L32.1426 23.5714H28.714L26.4283 25.8571V30.4285L24.1426 33.8571V39.4685C24.1547 39.5241 24.1739 39.5779 24.1997 39.6285L27.5711 43V45.2857L32.1426 46.4285L33.2854 49.8571H36.714L38.9997 47.5714V22.4285L36.714 20.1428H33.2854ZM53.8569 33.8571L51.5712 30.4285V25.8571L49.2855 23.5714H45.8569L44.714 20.1428H41.2855L38.9998 22.4285V47.5714L41.2855 49.8571H44.714L45.8569 46.4285L50.4283 45.2857V43L53.7998 39.6285C53.8256 39.5779 53.8448 39.5241 53.8569 39.4685V33.8571Z" fill="#111111"/>
<path fill-rule="evenodd" clip-rule="evenodd" d="M32.6435 3.36236C32.6435 3.25839 32.6023 3.15868 32.529 3.08512C32.4556 3.01156 32.3562 2.97018 32.2524 2.97007L19.2967 2.95279C19.177 1.30493 17.8039 0 16.1293 0C14.3759 0 12.9492 1.42882 12.9492 3.18579C12.9492 4.94277 14.3755 6.37158 16.1293 6.37158C17.694 6.37158 18.9951 5.23219 19.2574 3.73883L31.8604 3.75569V10.5985L31.9457 10.5739C32.1773 10.5073 32.4088 10.4407 32.6437 10.3813L32.6435 3.36236ZM16.1293 5.58534C15.6554 5.58542 15.192 5.44469 14.7979 5.18095C14.4038 4.9172 14.0966 4.54229 13.9152 4.10364C13.7338 3.66499 13.6864 3.18229 13.7789 2.71662C13.8713 2.25094 14.0996 1.82319 14.4348 1.48749C14.7699 1.15178 15.1969 0.92319 15.6618 0.830631C16.1267 0.738072 16.6085 0.785702 17.0463 0.967497C17.4842 1.14929 17.8583 1.45708 18.1215 1.85194C18.3847 2.2468 18.5251 2.71099 18.525 3.18579C18.5241 3.82199 18.2714 4.43188 17.8223 4.8817C17.3732 5.33152 16.7644 5.58457 16.1293 5.58534ZM6.6244 26.7185C7.97022 26.7185 9.0845 27.7176 9.27489 29.0133L14.0141 29.0123C13.9554 29.2433 13.9038 29.4771 13.8523 29.7108L13.8522 29.7109L13.8522 29.711L13.8522 29.711L13.8522 29.7111L13.8522 29.7111L13.8521 29.7114L13.8521 29.7115L13.8521 29.7115L13.8521 29.7115L13.8521 29.7116L13.852 29.7119L13.852 29.7119L13.8332 29.7971H9.27489C9.0845 31.0924 7.97022 32.0919 6.6244 32.0919C5.14534 32.0919 3.94189 30.8875 3.94189 29.4058C3.94272 28.6933 4.2256 28.0103 4.72849 27.5065C5.23138 27.0027 5.91321 26.7193 6.6244 26.7185ZM5.56937 30.9877C5.88166 31.1968 6.24881 31.3083 6.6244 31.3083C7.12778 31.3077 7.61038 31.1072 7.96639 30.7507C8.32239 30.3941 8.52274 29.9107 8.52351 29.4064V29.4052C8.52339 29.0289 8.41191 28.6612 8.20315 28.3484C7.9944 28.0356 7.69775 27.7918 7.35073 27.6479C7.0037 27.504 6.62187 27.4664 6.25351 27.5399C5.88516 27.6134 5.54683 27.7947 5.2813 28.0607C5.01576 28.3268 4.83495 28.6658 4.76172 29.0349C4.6885 29.4039 4.72614 29.7864 4.8699 30.134C5.01366 30.4816 5.25707 30.7787 5.56937 30.9877ZM71.319 32.0931C69.9731 32.0931 68.8589 31.0943 68.6685 29.7983L64.1164 29.7993L64.0977 29.7148L64.0977 29.7148L64.0977 29.7147L64.0977 29.7146L64.0976 29.7145L64.0976 29.7144L64.0976 29.7143L64.0976 29.7142L64.0975 29.7141L64.0975 29.714L64.0975 29.7139L64.0975 29.7138L64.0975 29.7137L64.0974 29.7137L64.0974 29.7136L64.0974 29.7135L64.0974 29.7134L64.0973 29.7133L64.0973 29.7132L64.0973 29.7131L64.0973 29.713L64.0972 29.7129L64.0972 29.7128L64.0972 29.7127L64.0972 29.7126C64.0457 29.4791 63.9942 29.2454 63.9355 29.0145H68.6685C68.8589 27.7192 69.9731 26.7197 71.319 26.7197C72.0302 26.7206 72.712 27.0039 73.2149 27.5077C73.7178 28.0115 74.0006 28.6946 74.0015 29.407C74.0015 30.8877 72.798 32.0931 71.319 32.0931ZM72.3741 27.8241C72.0618 27.6151 71.6946 27.5035 71.319 27.5035C70.8155 27.5041 70.3328 27.7047 69.9768 28.0614C69.6207 28.418 69.4205 28.9016 69.4199 29.406C69.4199 29.7823 69.5312 30.1501 69.7399 30.463C69.9486 30.7758 70.2452 31.0197 70.5922 31.1637C70.9392 31.3077 71.3211 31.3454 71.6895 31.272C72.0579 31.1986 72.3963 31.0174 72.6618 30.7513C72.9274 30.4852 73.1083 30.1462 73.1816 29.7772C73.2549 29.4081 73.2173 29.0256 73.0735 28.6779C72.9298 28.3303 72.6864 28.0332 72.3741 27.8241ZM6.62431 28.761C6.49688 28.761 6.3723 28.7988 6.26634 28.8698C6.16038 28.9407 6.0778 29.0415 6.02903 29.1595C5.98026 29.2774 5.9675 29.4072 5.99236 29.5324C6.01722 29.6576 6.07859 29.7726 6.1687 29.8629C6.25881 29.9532 6.37362 30.0146 6.49861 30.0396C6.6236 30.0645 6.75315 30.0517 6.87089 30.0028C6.98862 29.954 7.08925 29.8712 7.16005 29.7651C7.23085 29.6589 7.26864 29.5341 7.26864 29.4065C7.26864 29.2353 7.20076 29.0711 7.07992 28.95C6.95909 28.829 6.7952 28.761 6.62431 28.761ZM71.7977 43.7694C71.991 42.2494 73.2875 41.0696 74.8568 41.0696C76.5586 41.0696 77.9433 42.457 77.9433 44.1619C77.9433 45.8668 76.5586 47.254 74.8568 47.254C73.2875 47.254 71.9912 46.0742 71.7977 44.5542H63.0562C63.1545 44.2949 63.247 44.0328 63.3372 43.7694H71.7977ZM73.577 46.0804C73.9558 46.3339 74.4012 46.4692 74.8568 46.4692C75.4674 46.4684 76.0527 46.2251 76.4845 45.7925C76.9163 45.36 77.1592 44.7736 77.16 44.1619C77.16 43.7055 77.0249 43.2593 76.7719 42.8798C76.5188 42.5003 76.159 42.2045 75.7381 42.0299C75.3172 41.8552 74.8541 41.8095 74.4072 41.8985C73.9604 41.9875 73.55 42.2073 73.2278 42.53C72.9057 42.8527 72.6863 43.2639 72.5974 43.7116C72.5086 44.1592 72.5542 44.6232 72.7286 45.0448C72.9029 45.4665 73.1982 45.8269 73.577 46.0804ZM6.14568 43.7694C5.95217 42.2494 4.65561 41.0696 3.08656 41.0696C1.38469 41.0696 0 42.4563 0 44.1619C0 45.8674 1.38469 47.254 3.08656 47.254C4.65561 47.254 5.95217 46.0742 6.14547 44.5542H14.8934C14.7951 44.2949 14.7026 44.0336 14.6124 43.7694H6.14568ZM3.08656 46.4692C2.63098 46.4692 2.18564 46.3339 1.80685 46.0803C1.42805 45.8267 1.13282 45.4663 0.95849 45.0447C0.784159 44.623 0.738556 44.159 0.827449 43.7114C0.916343 43.2638 1.13574 42.8526 1.45789 42.5299C1.78005 42.2072 2.19049 41.9875 2.63732 41.8985C3.08414 41.8095 3.54728 41.8552 3.96817 42.0299C4.38905 42.2046 4.74878 42.5003 5.00185 42.8798C5.25493 43.2593 5.38998 43.7055 5.38994 44.1619C5.38923 44.7736 5.14631 45.3601 4.71449 45.7927C4.28268 46.2252 3.69722 46.4685 3.08656 46.4692ZM74.4358 43.531C74.5604 43.4476 74.7069 43.4031 74.8567 43.4031C75.0577 43.4031 75.2504 43.483 75.3924 43.6254C75.5345 43.7677 75.6143 43.9608 75.6143 44.162C75.6143 44.3122 75.5699 44.4589 75.4866 44.5837C75.4034 44.7085 75.2851 44.8058 75.1466 44.8632C75.0082 44.9207 74.8559 44.9357 74.7089 44.9064C74.562 44.8771 74.427 44.8049 74.321 44.6987C74.2151 44.5926 74.1429 44.4573 74.1137 44.3101C74.0844 44.1629 74.0994 44.0103 74.1568 43.8716C74.2141 43.7329 74.3112 43.6144 74.4358 43.531ZM69.2211 68.3176C69.3761 68.3176 69.5277 68.2716 69.6566 68.1854C69.7855 68.0991 69.886 67.9765 69.9454 67.833C70.0047 67.6895 70.0203 67.5316 69.99 67.3793C69.9598 67.2269 69.8852 67.087 69.7755 66.9772C69.6659 66.8673 69.5262 66.7926 69.3742 66.7623C69.2221 66.732 69.0645 66.7475 68.9213 66.807C68.778 66.8665 68.6556 66.9671 68.5695 67.0963C68.4834 67.2254 68.4375 67.3773 68.4375 67.5326C68.4376 67.7408 68.5201 67.9404 68.6671 68.0876C68.814 68.2348 69.0133 68.3176 69.2211 68.3176ZM11.6064 66.9797L31.8603 66.9624L31.8609 60.1946L31.9165 60.2106L31.9167 60.2107L31.9171 60.2108L31.9171 60.2108C32.1586 60.2804 32.3999 60.3499 32.6443 60.412V67.3555C32.6443 67.4595 32.6031 67.5593 32.5297 67.6329C32.4563 67.7065 32.3567 67.7479 32.2529 67.748L11.6465 67.7653C11.5268 69.4129 10.1536 70.7179 8.47892 70.7179C6.72509 70.7179 5.29883 69.2882 5.29883 67.5321H6.08221C6.08221 68.0068 6.22274 68.4709 6.48602 68.8657C6.74931 69.2604 7.12353 69.5681 7.56135 69.7497C7.99918 69.9314 8.48095 69.9789 8.94575 69.8863C9.41054 69.7937 9.83748 69.5651 10.1726 69.2294C10.5077 68.8937 10.7359 68.466 10.8283 68.0004C10.9208 67.5347 10.8733 67.0521 10.692 66.6135C10.5106 66.1749 10.2035 65.8 9.80949 65.5362C9.41545 65.2725 8.9522 65.1317 8.47829 65.1317V64.3467C10.043 64.3467 11.3443 65.4861 11.6064 66.9797ZM15.6937 2.53227C15.8226 2.446 15.9742 2.39998 16.1292 2.40002C16.337 2.40002 16.5364 2.48273 16.6833 2.62994C16.8303 2.77716 16.9128 2.97683 16.9128 3.18502C16.9129 3.34034 16.8669 3.49218 16.7808 3.62133C16.6947 3.75049 16.5723 3.85117 16.4291 3.91062C16.2858 3.97008 16.1282 3.98564 15.9762 3.95535C15.8241 3.92506 15.6844 3.85028 15.5748 3.74045C15.4652 3.63063 15.3905 3.4907 15.3603 3.33836C15.33 3.18603 15.3456 3.02813 15.4049 2.88465C15.4643 2.74116 15.5648 2.61853 15.6937 2.53227ZM45.8386 3.75424L58.4417 3.73737C58.7038 5.23074 60.0051 6.37012 61.5698 6.37012C63.3228 6.37012 64.7499 4.94131 64.7499 3.18433H63.9665C63.9667 3.65909 63.8263 4.12324 63.5632 4.51807C63.3 4.91291 62.9259 5.2207 62.4881 5.40253C62.0503 5.58435 61.5686 5.63204 61.1037 5.53957C60.6389 5.4471 60.2119 5.21861 59.8767 4.88301C59.5415 4.5474 59.3131 4.11976 59.2205 3.65415C59.128 3.18854 59.1753 2.70588 59.3565 2.26721C59.5377 1.82854 59.8447 1.45355 60.2387 1.18969C60.6327 0.925817 61.0959 0.784911 61.5698 0.784787V0C59.895 0 58.5217 1.30492 58.4022 2.95279L45.4466 2.97007C45.3427 2.97013 45.2432 3.01148 45.1698 3.08505C45.0964 3.15861 45.0552 3.25836 45.0552 3.36236V10.324C45.3185 10.3879 45.5796 10.4558 45.8386 10.5279V3.75424ZM45.1698 67.632C45.0964 67.5584 45.0552 67.4586 45.0552 67.3546V60.4685C45.3179 60.4044 45.579 60.3364 45.8386 60.2646V66.9611L66.0926 66.9783C66.3547 65.4848 67.6561 64.3454 69.2207 64.3454C70.9746 64.3454 72.4008 65.7742 72.4008 67.5312C72.4008 69.2881 70.9737 70.7169 69.2207 70.7169C67.5459 70.7169 66.1729 69.412 66.0531 67.7644L45.4466 67.7471C45.3427 67.747 45.2432 67.7056 45.1698 67.632ZM70.5519 65.5364C70.1579 65.2726 69.6946 65.1318 69.2207 65.1318C68.5855 65.1325 67.9764 65.3856 67.5272 65.8356C67.078 66.2856 66.8253 66.8958 66.8247 67.5322C66.8247 68.007 66.9652 68.471 67.2285 68.8658C67.4918 69.2605 67.866 69.5682 68.3038 69.7499C68.7416 69.9315 69.2234 69.9791 69.6882 69.8865C70.153 69.7938 70.5799 69.5652 70.915 69.2295C71.2501 68.8938 71.4783 68.4661 71.5708 68.0005C71.6632 67.5349 71.6158 67.0522 71.4344 66.6136C71.2531 66.175 70.946 65.8001 70.5519 65.5364ZM62.2909 35.3977C62.2909 22.5181 51.8313 12.0398 38.9748 12.0398C26.1183 12.0398 15.6587 22.5175 15.6587 35.3977C15.6587 48.2779 26.1183 58.755 38.9748 58.755C51.8313 58.755 62.2909 48.2766 62.2909 35.3977ZM38.9748 57.8132C26.6367 57.8132 16.5988 47.7573 16.5988 35.3977C16.5988 23.0381 26.6367 12.981 38.9748 12.981C51.3129 12.981 61.3508 23.0368 61.3508 35.3977C61.3508 47.7586 51.3129 57.8132 38.9748 57.8132ZM43.7354 8.17663L43.6279 8.79525C40.4569 8.24747 37.2142 8.26424 34.049 8.84481L33.9351 8.22744C37.1735 7.63365 40.491 7.61645 43.7354 8.17663ZM29.9702 9.93812L29.7609 9.34656C21.9249 12.1282 15.6221 18.4875 12.9043 26.3583L13.4965 26.5636C16.1526 18.8721 22.3111 12.6567 29.9702 9.93812ZM12.1524 41.857C11.3797 38.6064 11.196 35.2432 11.6099 31.9275L12.2318 32.0062C11.8271 35.2469 12.0067 38.5341 12.7618 41.7112L12.1524 41.857ZM29.3523 60.6282C22.856 58.1401 17.448 53.0843 14.515 46.7571L13.9468 47.0215C16.9477 53.4956 22.4813 58.6688 29.1287 61.2145L29.3523 60.6282ZM47.8608 9.93812L48.0701 9.34656C55.9071 12.1282 62.2095 18.4879 64.9275 26.3587L64.3354 26.564C61.6784 18.8721 55.5199 12.6567 47.8608 9.93812ZM65.6789 41.857C66.4519 38.6064 66.6356 35.2432 66.2214 31.9275L65.5998 32.0054C65.7399 33.1307 65.8102 34.2637 65.8103 35.3977C65.8111 37.524 65.5624 39.6431 65.0693 41.7112L65.6789 41.857ZM48.7022 61.2145L48.4785 60.6282C54.9759 58.1401 60.3829 53.0843 63.316 46.7571L63.8843 47.0215C60.8834 53.4956 55.3496 58.6688 48.7022 61.2145ZM34.6768 62.058L34.5776 62.6779C37.4014 63.1292 40.2777 63.1432 43.1057 62.7195L43.0126 62.0986C40.2482 62.5109 37.4371 62.4972 34.6768 62.058ZM52.7143 30.0857L54.808 33.2229C54.9329 33.4109 54.9996 33.6315 55 33.8571V39.5714C54.9999 39.8745 54.8795 40.1652 54.6651 40.3794L51.5714 43.4731V45.2857C51.5714 45.5405 51.4863 45.788 51.3295 45.9888C51.1728 46.1897 50.9534 46.3324 50.7063 46.3943L46.7429 47.3851L45.7989 50.2183C45.723 50.446 45.5775 50.644 45.3828 50.7843C45.1881 50.9246 44.9542 51.0001 44.7143 51H41.2857C40.9826 50.9999 40.692 50.8795 40.4777 50.6651L39 49.1874L37.5223 50.6651C37.308 50.8795 37.0174 50.9999 36.7143 51H33.2857C33.0458 51.0001 32.8119 50.9246 32.6172 50.7843C32.4225 50.644 32.277 50.446 32.2011 50.2183L31.2571 47.3851L27.2937 46.3943C27.0466 46.3324 26.8272 46.1897 26.6705 45.9888C26.5137 45.788 26.4286 45.5405 26.4286 45.2857V43.4731L23.3349 40.3794C23.1205 40.1652 23.0001 39.8745 23 39.5714V33.8571C23.001 33.6326 23.0678 33.4133 23.192 33.2263L25.2857 30.0857V25.8571C25.2858 25.5541 25.4062 25.2634 25.6206 25.0491L27.9063 22.7634C28.1206 22.5491 28.4112 22.4286 28.7143 22.4286H31.3189L32.2011 19.7817C32.277 19.5541 32.4225 19.356 32.6172 19.2157C32.8119 19.0754 33.0458 18.9999 33.2857 19H36.7143C37.0174 19.0001 37.308 19.1205 37.5223 19.3349L39 20.8126L40.4777 19.3349C40.692 19.1205 40.9826 19.0001 41.2857 19H44.7143C44.9542 18.9999 45.1881 19.0754 45.3828 19.2157C45.5775 19.356 45.723 19.5541 45.7989 19.7817L46.6811 22.4286H49.2857C49.5888 22.4286 49.8794 22.5491 50.0937 22.7634L52.3794 25.0491C52.5938 25.2634 52.7142 25.5541 52.7143 25.8571V30.0857ZM36.2411 48.7143L37.8571 47.0983V22.9017L36.2411 21.2857H34.1097L33.4503 23.2629L35.2366 25.0491C35.4509 25.2634 35.5714 25.5541 35.5714 25.8571V27H33.2857V26.3303L31.6697 24.7143H29.1874L27.5714 26.3303V29.9554L29.5223 31.9063C29.7366 32.1206 29.8571 32.4112 29.8571 32.7143V33.8571H27.5714V33.184L26.6057 32.2194L25.2857 34.2V39.0983L26.4286 40.2411V38.4286H28.7143V44.3931L31.792 45.1634L33.2857 43.6697V43H35.5714V44.1429C35.5714 44.4459 35.4509 44.7366 35.2366 44.9509L33.4503 46.7371L34.1097 48.7143H36.2411ZM51.5714 40.2411L52.7143 39.0983V34.2L51.3943 32.2229L50.4286 33.1874V33.8571H48.1429V32.7143C48.1429 32.4112 48.2634 32.1206 48.4777 31.9063L50.4286 29.9554V26.3303L48.8126 24.7143H46.3303L44.7143 26.3303V27H42.4286V25.8571C42.4286 25.5541 42.5491 25.2634 42.7634 25.0491L44.5497 23.2629L43.8903 21.2857H41.7589L40.1429 22.9017V47.0983L41.7589 48.7143H43.8903L44.5497 46.7371L42.7634 44.9509C42.5491 44.7366 42.4286 44.4459 42.4286 44.1429V43H44.7143V43.6697L46.208 45.1634L49.2857 44.3931V38.4286H51.5714V40.2411ZM46.6653 34.1919L44.7144 32.2411V29.2856H42.4287V32.7142C42.4288 33.0173 42.5492 33.3079 42.7636 33.5222L45.0493 35.8079L46.6653 34.1919ZM43.9062 39.2366L45.5223 37.6206L46.6651 38.7635C46.8795 38.9777 46.9999 39.2684 47 39.5715V41.8572H44.7143V40.0446L43.9062 39.2366ZM33.2858 32.2411L31.335 34.1919L32.951 35.8079L35.2367 33.5222C35.451 33.3079 35.5715 33.0173 35.5715 32.7142V29.2856H33.2858V32.2411ZM31 39.5715C31.0001 39.2684 31.1205 38.9777 31.3349 38.7635L32.4777 37.6206L34.0937 39.2366L33.2857 40.0446V41.8572H31V39.5715Z" fill="url(#paint0_linear)"/>
<defs>
<linearGradient id="paint0_linear" x1="9" y1="2.31902e-06" x2="70" y2="114.5" gradientUnits="userSpaceOnUse">
<stop stop-color="#27AE60"/>
<stop offset="1" stop-color="#27AE60" stop-opacity="0.4"/>
</linearGradient>
</defs>
</svg>
