<svg width="72" height="66" viewBox="0 0 72 66" fill="none" xmlns="http://www.w3.org/2000/svg">
<g clip-path="url(#clip0)">
<path fill-rule="evenodd" clip-rule="evenodd" d="M34.9086 24.8185C34.8374 24.5636 34.8701 24.2908 34.9997 24.06L36.4997 21.31L5.92969 4.2L8.27969 0L38.8697 17.12L40.4097 14.38C40.4733 14.2651 40.559 14.1638 40.6618 14.082C40.7646 14.0001 40.8826 13.9394 41.0089 13.9032C41.1352 13.8669 41.2674 13.856 41.3979 13.8709C41.5285 13.8858 41.6548 13.9263 41.7697 13.99L47.7697 17.35C47.8846 17.4137 47.9859 17.4993 48.0677 17.6021C48.1495 17.7049 48.2103 17.8229 48.2465 17.9492C48.2827 18.0755 48.2937 18.2077 48.2788 18.3382C48.2639 18.4688 48.2234 18.5951 48.1597 18.71L46.6197 21.45L47.3797 21.87L45.0297 26.07L44.2697 25.64L42.7397 28.39C42.6094 28.6204 42.3932 28.7898 42.1382 28.8611C41.8833 28.9323 41.6105 28.8996 41.3797 28.77L35.3797 25.42C35.1493 25.2898 34.9799 25.0735 34.9086 24.8185ZM56.4798 33.24H68.5498L68.5698 33.29C69.2984 33.2603 70.0096 33.518 70.55 34.0077C71.0903 34.4973 71.4167 35.1797 71.4587 35.9077C71.5006 36.6357 71.2549 37.3511 70.7744 37.8996C70.2938 38.4481 69.617 38.7859 68.8898 38.84L67.9998 39.4V41.4C67.9838 41.6245 67.9401 41.8462 67.8698 42.06V42.23C67.8325 42.3489 67.7891 42.4657 67.7398 42.58L67.6498 42.75L67.4698 43.05L67.3498 43.21L67.1198 43.47L66.9898 43.59C66.8999 43.68 66.7899 43.77 66.68 43.8599L66.6798 43.86L66.5998 43.93C66.58 43.9442 66.56 43.9586 66.5397 43.9731C66.4171 44.061 66.2872 44.1542 66.1498 44.24L65.6698 44.52H65.5798L65.1498 44.74L65.0098 44.8L64.5698 45H64.4598C63.6598 45.32 62.8198 45.65 61.8198 46C60.3932 46.5014 58.9946 47.0789 57.6298 47.73L57.0898 48C56.4501 48.3437 55.8412 48.7418 55.2698 49.19L54.5498 48.48L55.1898 49.25L54.8898 49.51L54.7698 49.62C54.6815 49.7017 54.598 49.7886 54.5198 49.88L54.4098 50L54.1798 50.27L54.0798 50.39L53.8698 50.68C53.363 51.459 53.0986 52.3708 53.1098 53.3V53.8C53.1138 54.4625 53.3239 55.1072 53.711 55.6448C54.098 56.1824 54.6429 56.5862 55.2698 56.8L63.9998 59.8V65.4H49.7698L39.7698 61.52H38.2798L28.2798 65.4H14.0198V59.8L22.7398 56.8C23.3695 56.5891 23.9173 56.1865 24.3065 55.6484C24.6956 55.1104 24.9066 54.4641 24.9098 53.8V53.3C24.9185 52.2819 24.5956 51.2885 23.9898 50.47C23.8832 50.31 23.7632 50.15 23.6298 49.99L23.4498 49.77L23.0998 49.38C22.7898 49.0401 22.4899 48.7401 22.1899 48.4401L22.1898 48.44L21.5498 47.79C19.9612 47.2228 18.3144 46.8337 16.6398 46.63C13.7982 46.2275 11.0727 45.2327 8.63982 43.71L1.31982 39.12C0.80081 38.795 0.401709 38.3099 0.18284 37.7379C-0.036029 37.166 -0.0627692 36.5383 0.106661 35.9498C0.276091 35.3613 0.632481 34.844 1.12197 34.476C1.61145 34.108 2.20743 33.9093 2.81982 33.91H18.6398V33.24H21.5998V32.38H30.5998V27.17H35.3698L41.5798 30.23L47.4798 27.17V32.38H56.4798V33.24ZM68.2598 36.8H68.5498V36.78C68.7567 36.78 68.9551 36.6979 69.1014 36.5516C69.2476 36.4053 69.3298 36.2069 69.3298 36C69.3298 35.7932 69.2476 35.5948 69.1014 35.4485C68.9551 35.3022 68.7567 35.22 68.5498 35.22H20.6398V35.89H2.81982C2.64289 35.8907 2.47091 35.9486 2.32957 36.055C2.18823 36.1615 2.08511 36.3108 2.03561 36.4806C1.98611 36.6505 1.99289 36.8318 2.05493 36.9975C2.11696 37.1632 2.23093 37.3044 2.37982 37.4L9.69982 42C11.9057 43.3728 14.376 44.2655 16.9498 44.62C18.8544 44.8479 20.7245 45.3046 22.5198 45.98L22.7198 46.06L22.8698 46.22L23.6298 46.99L24.5798 47.99C24.6945 48.1119 24.7937 48.2285 24.8886 48.3401C24.9261 48.3842 24.963 48.4275 24.9998 48.47L25.1098 48.63L25.6198 49.3C26.4562 50.4652 26.9009 51.8658 26.8898 53.3V53.8C26.8889 54.886 26.5479 55.9445 25.9148 56.8269C25.2818 57.7093 24.3883 58.3713 23.3598 58.72L15.9998 61.21V63.37H27.8998L37.8998 59.49H40.1398L50.1398 63.37H61.9998V61.21L54.6898 58.74C53.6624 58.3909 52.7703 57.7285 52.1389 56.8459C51.5075 55.9634 51.1686 54.9052 51.1698 53.82V53.32C51.1569 51.9995 51.5362 50.7048 52.2598 49.6C52.3498 49.4601 52.4498 49.3301 52.5498 49.2001L52.5498 49.2L52.6798 49.03L52.9798 48.68L53.1298 48.52L53.4598 48.19L53.6098 48.05C53.7298 47.94 53.8498 47.83 53.9798 47.73L54.0798 47.65C54.7068 47.1468 55.3759 46.6985 56.0798 46.31L56.6698 46C58.1605 45.3085 59.6858 44.6944 61.2398 44.16C61.4025 44.0982 61.5636 44.0372 61.7227 43.977C62.464 43.6966 63.1642 43.4317 63.7898 43.16L64.2598 42.95L64.3898 42.89L64.7098 42.72L65.2998 43.54L64.8198 42.67L65.1498 42.47C65.272 42.3984 65.389 42.3182 65.4998 42.23L65.7298 42.04L65.8998 41.86C65.9398 41.8111 65.9734 41.7574 65.9998 41.7L66.9998 41.85L65.9998 41.56C66.0109 41.5073 66.0109 41.4528 65.9998 41.4V38.26L68.2598 36.8Z" fill="url(#paint0_linear)"/>
<path d="M31.0298 26.33L22.8098 26.03L22.5498 22.72L30.0998 25.35L31.0298 26.33Z" fill="white"/>
<path d="M60.7197 11.0601L58.3896 15.0301L59.5896 15.1801L63.4697 11.7801L60.7197 11.0601Z" fill="white"/>
<path d="M58.1798 16.46L55.0098 20L59.7698 16.17L58.1798 16.46Z" fill="white"/>
<path d="M29.9399 20.57L32.5899 24.76L30.6299 19.23L29.9399 20.57Z" fill="white"/>
<path d="M33.0096 25.96L27.5596 22.49L27.3496 23.27L27.0896 22.38L24.8896 22.57L26.8896 21.91L25.8696 20.46L27.1796 21.62L27.0696 20.61L27.4096 21.64L28.2696 20.65L27.6996 21.79L28.4596 21.69L27.8796 22.04L33.0096 25.96Z" fill="white"/>
<path d="M47.4399 25.33L53.1299 16.55L51.8699 16.21L53.2999 15.81L53.0399 12.25L54.0799 15.48L56.4299 13.85L54.5299 15.96L56.1799 15.8L54.5099 16.32L56.0899 17.73L54.2599 16.8L54.4099 18.02L53.8499 17.09L47.4399 25.33Z" fill="white"/>
</g>
<defs>
<linearGradient id="paint0_linear" x1="2.5" y1="-9.08443e-07" x2="65" y2="72" gradientUnits="userSpaceOnUse">
<stop stop-color="#27A55C"/>
<stop offset="1" stop-color="#227544"/>
</linearGradient>
<clipPath id="clip0">
<rect width="71.33" height="65.37" fill="white"/>
</clipPath>
</defs>
</svg>
