<svg width="22" height="22" viewBox="0 0 22 22" fill="none" xmlns="http://www.w3.org/2000/svg">
<path fill-rule="evenodd" clip-rule="evenodd" d="M4.63604 4.63604C6.32387 2.94821 8.61305 2 11 2C13.3869 2 15.6761 2.94821 17.364 4.63604C19.0518 6.32387 20 8.61305 20 11V12.2222H17.6667C16.8121 12.2222 15.9925 12.5617 15.3882 13.166C14.7839 13.7703 14.4444 14.5899 14.4444 15.4444V18.7778C14.4444 19.6324 14.7839 20.452 15.3882 21.0562C15.9925 21.6605 16.8121 22 17.6667 22H18.7778C19.6324 22 20.452 21.6605 21.0562 21.0562C21.6605 20.452 22 19.6324 22 18.7778V17.6667V13.2222V11C22 8.08262 20.8411 5.28473 18.7782 3.22183C16.7153 1.15893 13.9174 0 11 0C8.08262 0 5.28473 1.15893 3.22183 3.22183C1.15893 5.28473 0 8.08262 0 11V13.2222V17.6667V18.7778C0 19.6324 0.339483 20.4519 0.943767 21.0562C1.54805 21.6605 2.36764 22 3.22222 22H4.33333C5.18792 22 6.00751 21.6605 6.61179 21.0562C7.21607 20.4519 7.55556 19.6324 7.55556 18.7778V15.4444C7.55556 14.5899 7.21607 13.7703 6.61179 13.166C6.00751 12.5617 5.18792 12.2222 4.33333 12.2222H2V11C2 8.61305 2.94821 6.32387 4.63604 4.63604ZM2 14.2222V17.6667V18.7778C2 19.1019 2.12877 19.4128 2.35798 19.642C2.58719 19.8712 2.89807 20 3.22222 20H4.33333C4.65749 20 4.96836 19.8712 5.19758 19.642C5.42679 19.4128 5.55556 19.1019 5.55556 18.7778V15.4444C5.55556 15.1203 5.42679 14.8094 5.19758 14.5802C4.96836 14.351 4.65749 14.2222 4.33333 14.2222H2ZM20 14.2222H17.6667C17.3425 14.2222 17.0316 14.351 16.8024 14.5802C16.5732 14.8094 16.4444 15.1203 16.4444 15.4444V18.7778C16.4444 19.1019 16.5732 19.4128 16.8024 19.642C17.0316 19.8712 17.3425 20 17.6667 20H18.7778C19.1019 20 19.4128 19.8712 19.642 19.642C19.8712 19.4128 20 19.1019 20 18.7778V17.6667V14.2222Z" fill="#27AE60"/>
</svg>
