<svg width="128" height="128" viewBox="0 0 128 128" fill="none" xmlns="http://www.w3.org/2000/svg">
<circle cx="64" cy="64" r="63.5" stroke="white"/>
<path fill-rule="evenodd" clip-rule="evenodd" d="M58.2854 50.1428L57.1426 53.5714H53.714L51.4283 55.8571V60.4285L49.1426 63.8571V69.4685C49.1547 69.5241 49.1739 69.5779 49.1997 69.6285L52.5711 73V75.2857L57.1426 76.4285L58.2854 79.8571H61.714L63.9997 77.5714V52.4285L61.714 50.1428H58.2854ZM78.8569 63.8571L76.5712 60.4285V55.8571L74.2855 53.5714H70.8569L69.714 50.1428H66.2855L63.9998 52.4285V77.5714L66.2855 79.8571H69.714L70.8569 76.4285L75.4283 75.2857V73L78.7998 69.6285C78.8256 69.5779 78.8448 69.5241 78.8569 69.4685V63.8571Z" fill="white"/>
<path fill-rule="evenodd" clip-rule="evenodd" d="M57.6435 33.3624C57.6435 33.2584 57.6023 33.1587 57.529 33.0851C57.4556 33.0116 57.3562 32.9702 57.2524 32.9701L44.2967 32.9528C44.177 31.3049 42.8039 30 41.1293 30C39.3759 30 37.9492 31.4288 37.9492 33.1858C37.9492 34.9428 39.3755 36.3716 41.1293 36.3716C42.694 36.3716 43.9951 35.2322 44.2574 33.7388L56.8604 33.7557V40.5985L56.9457 40.5739C57.1773 40.5073 57.4088 40.4407 57.6437 40.3813L57.6435 33.3624ZM41.1293 35.5853C40.6554 35.5854 40.192 35.4447 39.7979 35.1809C39.4038 34.9172 39.0966 34.5423 38.9152 34.1036C38.7338 33.665 38.6864 33.1823 38.7789 32.7166C38.8713 32.2509 39.0996 31.8232 39.4348 31.4875C39.7699 31.1518 40.1969 30.9232 40.6618 30.8306C41.1267 30.7381 41.6085 30.7857 42.0463 30.9675C42.4842 31.1493 42.8583 31.4571 43.1215 31.8519C43.3847 32.2468 43.5251 32.711 43.525 33.1858C43.5241 33.822 43.2714 34.4319 42.8223 34.8817C42.3732 35.3315 41.7644 35.5846 41.1293 35.5853ZM31.6244 56.7185C32.9702 56.7185 34.0845 57.7176 34.2749 59.0133L39.0141 59.0123C38.9554 59.2433 38.9038 59.4771 38.8523 59.7108L38.8522 59.7109L38.8522 59.711L38.8522 59.711L38.8522 59.7111L38.8522 59.7111L38.8521 59.7114L38.8521 59.7115L38.8521 59.7115L38.8521 59.7115L38.8521 59.7116L38.852 59.7119L38.852 59.7119L38.8332 59.7971H34.2749C34.0845 61.0924 32.9702 62.0919 31.6244 62.0919C30.1453 62.0919 28.9419 60.8875 28.9419 59.4058C28.9427 58.6933 29.2256 58.0103 29.7285 57.5065C30.2314 57.0027 30.9132 56.7193 31.6244 56.7185ZM30.5694 60.9877C30.8817 61.1968 31.2488 61.3083 31.6244 61.3083C32.1278 61.3077 32.6104 61.1072 32.9664 60.7507C33.3224 60.3941 33.5227 59.9107 33.5235 59.4064V59.4052C33.5234 59.0289 33.4119 58.6612 33.2032 58.3484C32.9944 58.0356 32.6978 57.7918 32.3507 57.6479C32.0037 57.504 31.6219 57.4664 31.2535 57.5399C30.8852 57.6134 30.5468 57.7947 30.2813 58.0607C30.0158 58.3268 29.835 58.6658 29.7617 59.0349C29.6885 59.4039 29.7261 59.7864 29.8699 60.134C30.0137 60.4816 30.2571 60.7787 30.5694 60.9877ZM96.319 62.0931C94.9731 62.0931 93.8589 61.0943 93.6685 59.7983L89.1164 59.7993L89.0977 59.7148L89.0977 59.7148L89.0977 59.7147L89.0977 59.7146L89.0976 59.7145L89.0976 59.7144L89.0976 59.7143L89.0976 59.7142L89.0975 59.7141L89.0975 59.714L89.0975 59.7139L89.0975 59.7138L89.0975 59.7137L89.0974 59.7137L89.0974 59.7136L89.0974 59.7135L89.0974 59.7134L89.0973 59.7133L89.0973 59.7132L89.0973 59.7131L89.0973 59.713L89.0972 59.7129L89.0972 59.7128L89.0972 59.7127L89.0972 59.7126C89.0457 59.4791 88.9942 59.2454 88.9355 59.0145H93.6685C93.8589 57.7192 94.9731 56.7197 96.319 56.7197C97.0302 56.7206 97.712 57.0039 98.2149 57.5077C98.7178 58.0115 99.0006 58.6946 99.0015 59.407C99.0015 60.8877 97.798 62.0931 96.319 62.0931ZM97.3741 57.8241C97.0618 57.6151 96.6946 57.5035 96.319 57.5035C95.8155 57.5041 95.3328 57.7047 94.9768 58.0614C94.6207 58.418 94.4205 58.9016 94.4199 59.406C94.4199 59.7823 94.5312 60.1501 94.7399 60.463C94.9486 60.7758 95.2452 61.0197 95.5922 61.1637C95.9392 61.3077 96.3211 61.3454 96.6895 61.272C97.0579 61.1986 97.3963 61.0174 97.6618 60.7513C97.9274 60.4852 98.1083 60.1462 98.1816 59.7772C98.2549 59.4081 98.2173 59.0256 98.0735 58.6779C97.9298 58.3303 97.6864 58.0332 97.3741 57.8241ZM31.6243 58.761C31.4969 58.761 31.3723 58.7988 31.2663 58.8698C31.1604 58.9407 31.0778 59.0415 31.029 59.1595C30.9803 59.2774 30.9675 59.4072 30.9924 59.5324C31.0172 59.6576 31.0786 59.7726 31.1687 59.8629C31.2588 59.9532 31.3736 60.0146 31.4986 60.0396C31.6236 60.0645 31.7532 60.0517 31.8709 60.0028C31.9886 59.954 32.0893 59.8712 32.1601 59.7651C32.2309 59.6589 32.2686 59.5341 32.2686 59.4065C32.2686 59.2353 32.2008 59.0711 32.0799 58.95C31.9591 58.829 31.7952 58.761 31.6243 58.761ZM96.7977 73.7694C96.991 72.2494 98.2875 71.0696 99.8568 71.0696C101.559 71.0696 102.943 72.457 102.943 74.1619C102.943 75.8668 101.559 77.254 99.8568 77.254C98.2875 77.254 96.9912 76.0742 96.7977 74.5542H88.0562C88.1545 74.2949 88.247 74.0328 88.3372 73.7694H96.7977ZM98.577 76.0804C98.9558 76.3339 99.4012 76.4692 99.8568 76.4692C100.467 76.4684 101.053 76.2251 101.485 75.7925C101.916 75.36 102.159 74.7736 102.16 74.1619C102.16 73.7055 102.025 73.2593 101.772 72.8798C101.519 72.5003 101.159 72.2045 100.738 72.0299C100.317 71.8552 99.8541 71.8095 99.4072 71.8985C98.9604 71.9875 98.55 72.2073 98.2278 72.53C97.9057 72.8527 97.6863 73.2639 97.5974 73.7116C97.5086 74.1592 97.5542 74.6232 97.7286 75.0448C97.9029 75.4665 98.1982 75.8269 98.577 76.0804ZM31.1457 73.7694C30.9522 72.2494 29.6556 71.0696 28.0866 71.0696C26.3847 71.0696 25 72.4563 25 74.1619C25 75.8674 26.3847 77.254 28.0866 77.254C29.6556 77.254 30.9522 76.0742 31.1455 74.5542H39.8934C39.7951 74.2949 39.7026 74.0336 39.6124 73.7694H31.1457ZM28.0866 76.4692C27.631 76.4692 27.1856 76.3339 26.8068 76.0803C26.4281 75.8267 26.1328 75.4663 25.9585 75.0447C25.7842 74.623 25.7386 74.159 25.8274 73.7114C25.9163 73.2638 26.1357 72.8526 26.4579 72.5299C26.78 72.2072 27.1905 71.9875 27.6373 71.8985C28.0841 71.8095 28.5473 71.8552 28.9682 72.0299C29.3891 72.2046 29.7488 72.5003 30.0019 72.8798C30.2549 73.2593 30.39 73.7055 30.3899 74.1619C30.3892 74.7736 30.1463 75.3601 29.7145 75.7927C29.2827 76.2252 28.6972 76.4685 28.0866 76.4692ZM99.4358 73.531C99.5604 73.4476 99.7069 73.4031 99.8567 73.4031C100.058 73.4031 100.25 73.483 100.392 73.6254C100.535 73.7677 100.614 73.9608 100.614 74.162C100.614 74.3122 100.57 74.4589 100.487 74.5837C100.403 74.7085 100.285 74.8058 100.147 74.8632C100.008 74.9207 99.8559 74.9357 99.7089 74.9064C99.562 74.8771 99.427 74.8049 99.321 74.6987C99.2151 74.5926 99.1429 74.4573 99.1137 74.3101C99.0844 74.1629 99.0994 74.0103 99.1568 73.8716C99.2141 73.7329 99.3112 73.6144 99.4358 73.531ZM94.2211 98.3176C94.3761 98.3176 94.5277 98.2716 94.6566 98.1854C94.7855 98.0991 94.886 97.9765 94.9454 97.833C95.0047 97.6895 95.0203 97.5316 94.99 97.3793C94.9598 97.2269 94.8852 97.087 94.7755 96.9772C94.6659 96.8673 94.5262 96.7926 94.3742 96.7623C94.2221 96.732 94.0645 96.7475 93.9213 96.807C93.778 96.8665 93.6556 96.9671 93.5695 97.0963C93.4834 97.2254 93.4375 97.3773 93.4375 97.5326C93.4376 97.7408 93.5201 97.9404 93.6671 98.0876C93.814 98.2348 94.0133 98.3176 94.2211 98.3176ZM36.6064 96.9797L56.8603 96.9624L56.8609 90.1946L56.9165 90.2106L56.9167 90.2107L56.9171 90.2108L56.9171 90.2108C57.1586 90.2804 57.3999 90.3499 57.6443 90.412V97.3555C57.6443 97.4595 57.6031 97.5593 57.5297 97.6329C57.4563 97.7065 57.3567 97.7479 57.2529 97.748L36.6465 97.7653C36.5268 99.4129 35.1536 100.718 33.4789 100.718C31.7251 100.718 30.2988 99.2882 30.2988 97.5321H31.0822C31.0822 98.0068 31.2227 98.4709 31.486 98.8657C31.7493 99.2604 32.1235 99.5681 32.5614 99.7497C32.9992 99.9314 33.481 99.9789 33.9457 99.8863C34.4105 99.7937 34.8375 99.5651 35.1726 99.2294C35.5077 98.8937 35.7359 98.466 35.8283 98.0004C35.9208 97.5347 35.8733 97.0521 35.692 96.6135C35.5106 96.1749 35.2035 95.8 34.8095 95.5362C34.4155 95.2725 33.9522 95.1317 33.4783 95.1317V94.3467C35.043 94.3467 36.3443 95.4861 36.6064 96.9797ZM40.6937 32.5323C40.8226 32.446 40.9742 32.4 41.1292 32.4C41.337 32.4 41.5364 32.4827 41.6833 32.6299C41.8303 32.7772 41.9128 32.9768 41.9128 33.185C41.9129 33.3403 41.8669 33.4922 41.7808 33.6213C41.6947 33.7505 41.5723 33.8512 41.4291 33.9106C41.2858 33.9701 41.1282 33.9856 40.9762 33.9554C40.8241 33.9251 40.6844 33.8503 40.5748 33.7405C40.4652 33.6306 40.3905 33.4907 40.3603 33.3384C40.33 33.186 40.3456 33.0281 40.4049 32.8846C40.4643 32.7412 40.5648 32.6185 40.6937 32.5323ZM70.8386 33.7542L83.4417 33.7374C83.7038 35.2307 85.0051 36.3701 86.5698 36.3701C88.3228 36.3701 89.7499 34.9413 89.7499 33.1843H88.9665C88.9667 33.6591 88.8263 34.1232 88.5632 34.5181C88.3 34.9129 87.9259 35.2207 87.4881 35.4025C87.0503 35.5844 86.5686 35.632 86.1037 35.5396C85.6389 35.4471 85.2119 35.2186 84.8767 34.883C84.5415 34.5474 84.3131 34.1198 84.2205 33.6541C84.128 33.1885 84.1753 32.7059 84.3565 32.2672C84.5377 31.8285 84.8447 31.4536 85.2387 31.1897C85.6327 30.9258 86.0959 30.7849 86.5698 30.7848V30C84.895 30 83.5217 31.3049 83.4022 32.9528L70.4466 32.9701C70.3427 32.9701 70.2432 33.0115 70.1698 33.085C70.0964 33.1586 70.0552 33.2584 70.0552 33.3624V40.324C70.3185 40.3879 70.5796 40.4558 70.8386 40.5279V33.7542ZM70.1698 97.632C70.0964 97.5584 70.0552 97.4586 70.0552 97.3546V90.4685C70.3179 90.4044 70.579 90.3364 70.8386 90.2646V96.9611L91.0926 96.9783C91.3547 95.4848 92.6561 94.3454 94.2207 94.3454C95.9746 94.3454 97.4008 95.7742 97.4008 97.5312C97.4008 99.2881 95.9737 100.717 94.2207 100.717C92.5459 100.717 91.1729 99.412 91.0531 97.7644L70.4466 97.7471C70.3427 97.747 70.2432 97.7056 70.1698 97.632ZM95.5519 95.5364C95.1579 95.2726 94.6946 95.1318 94.2207 95.1318C93.5855 95.1325 92.9764 95.3856 92.5272 95.8356C92.078 96.2856 91.8253 96.8958 91.8247 97.5322C91.8247 98.007 91.9652 98.471 92.2285 98.8658C92.4918 99.2605 92.866 99.5682 93.3038 99.7499C93.7416 99.9315 94.2234 99.9791 94.6882 99.8865C95.153 99.7938 95.5799 99.5652 95.915 99.2295C96.2501 98.8938 96.4783 98.4661 96.5708 98.0005C96.6632 97.5349 96.6158 97.0522 96.4344 96.6136C96.2531 96.175 95.946 95.8001 95.5519 95.5364ZM87.2909 65.3977C87.2909 52.5181 76.8313 42.0398 63.9748 42.0398C51.1183 42.0398 40.6587 52.5175 40.6587 65.3977C40.6587 78.2779 51.1183 88.755 63.9748 88.755C76.8313 88.755 87.2909 78.2766 87.2909 65.3977ZM63.9748 87.8132C51.6367 87.8132 41.5988 77.7573 41.5988 65.3977C41.5988 53.0381 51.6367 42.981 63.9748 42.981C76.3129 42.981 86.3508 53.0368 86.3508 65.3977C86.3508 77.7586 76.3129 87.8132 63.9748 87.8132ZM68.7354 38.1766L68.6279 38.7953C65.4569 38.2475 62.2142 38.2642 59.049 38.8448L58.9351 38.2274C62.1735 37.6337 65.491 37.6165 68.7354 38.1766ZM54.9702 39.9381L54.7609 39.3466C46.9249 42.1282 40.6221 48.4875 37.9043 56.3583L38.4965 56.5636C41.1526 48.8721 47.3111 42.6567 54.9702 39.9381ZM37.1524 71.857C36.3797 68.6064 36.196 65.2432 36.6099 61.9275L37.2318 62.0062C36.8271 65.2469 37.0067 68.5341 37.7618 71.7112L37.1524 71.857ZM54.3523 90.6282C47.856 88.1401 42.448 83.0843 39.515 76.7571L38.9468 77.0215C41.9477 83.4956 47.4813 88.6688 54.1287 91.2145L54.3523 90.6282ZM72.8608 39.9381L73.0701 39.3466C80.9071 42.1282 87.2095 48.4879 89.9275 56.3587L89.3354 56.564C86.6784 48.8721 80.5199 42.6567 72.8608 39.9381ZM90.6789 71.857C91.4519 68.6064 91.6356 65.2432 91.2214 61.9275L90.5998 62.0054C90.7399 63.1307 90.8102 64.2637 90.8103 65.3977C90.8111 67.524 90.5624 69.6431 90.0693 71.7112L90.6789 71.857ZM73.7022 91.2145L73.4785 90.6282C79.9759 88.1401 85.3829 83.0843 88.316 76.7571L88.8843 77.0215C85.8834 83.4956 80.3496 88.6688 73.7022 91.2145ZM59.6768 92.058L59.5776 92.6779C62.4014 93.1292 65.2777 93.1432 68.1057 92.7195L68.0126 92.0986C65.2482 92.5109 62.4371 92.4972 59.6768 92.058ZM77.7143 60.0857L79.808 63.2229C79.9329 63.4109 79.9996 63.6315 80 63.8571V69.5714C79.9999 69.8745 79.8795 70.1652 79.6651 70.3794L76.5714 73.4731V75.2857C76.5714 75.5405 76.4863 75.788 76.3295 75.9888C76.1728 76.1897 75.9534 76.3324 75.7063 76.3943L71.7429 77.3851L70.7989 80.2183C70.723 80.446 70.5775 80.644 70.3828 80.7843C70.1881 80.9246 69.9542 81.0001 69.7143 81H66.2857C65.9826 80.9999 65.692 80.8795 65.4777 80.6651L64 79.1874L62.5223 80.6651C62.308 80.8795 62.0174 80.9999 61.7143 81H58.2857C58.0458 81.0001 57.8119 80.9246 57.6172 80.7843C57.4225 80.644 57.277 80.446 57.2011 80.2183L56.2571 77.3851L52.2937 76.3943C52.0466 76.3324 51.8272 76.1897 51.6705 75.9888C51.5137 75.788 51.4286 75.5405 51.4286 75.2857V73.4731L48.3349 70.3794C48.1205 70.1652 48.0001 69.8745 48 69.5714V63.8571C48.001 63.6326 48.0678 63.4133 48.192 63.2263L50.2857 60.0857V55.8571C50.2858 55.5541 50.4062 55.2634 50.6206 55.0491L52.9063 52.7634C53.1206 52.5491 53.4112 52.4286 53.7143 52.4286H56.3189L57.2011 49.7817C57.277 49.5541 57.4225 49.356 57.6172 49.2157C57.8119 49.0754 58.0458 48.9999 58.2857 49H61.7143C62.0174 49.0001 62.308 49.1205 62.5223 49.3349L64 50.8126L65.4777 49.3349C65.692 49.1205 65.9826 49.0001 66.2857 49H69.7143C69.9542 48.9999 70.1881 49.0754 70.3828 49.2157C70.5775 49.356 70.723 49.5541 70.7989 49.7817L71.6811 52.4286H74.2857C74.5888 52.4286 74.8794 52.5491 75.0937 52.7634L77.3794 55.0491C77.5938 55.2634 77.7142 55.5541 77.7143 55.8571V60.0857ZM61.2411 78.7143L62.8571 77.0983V52.9017L61.2411 51.2857H59.1097L58.4503 53.2629L60.2366 55.0491C60.4509 55.2634 60.5714 55.5541 60.5714 55.8571V57H58.2857V56.3303L56.6697 54.7143H54.1874L52.5714 56.3303V59.9554L54.5223 61.9063C54.7366 62.1206 54.8571 62.4112 54.8571 62.7143V63.8571H52.5714V63.184L51.6057 62.2194L50.2857 64.2V69.0983L51.4286 70.2411V68.4286H53.7143V74.3931L56.792 75.1634L58.2857 73.6697V73H60.5714V74.1429C60.5714 74.4459 60.4509 74.7366 60.2366 74.9509L58.4503 76.7371L59.1097 78.7143H61.2411ZM76.5714 70.2411L77.7143 69.0983V64.2L76.3943 62.2229L75.4286 63.1874V63.8571H73.1429V62.7143C73.1429 62.4112 73.2634 62.1206 73.4777 61.9063L75.4286 59.9554V56.3303L73.8126 54.7143H71.3303L69.7143 56.3303V57H67.4286V55.8571C67.4286 55.5541 67.5491 55.2634 67.7634 55.0491L69.5497 53.2629L68.8903 51.2857H66.7589L65.1429 52.9017V77.0983L66.7589 78.7143H68.8903L69.5497 76.7371L67.7634 74.9509C67.5491 74.7366 67.4286 74.4459 67.4286 74.1429V73H69.7143V73.6697L71.208 75.1634L74.2857 74.3931V68.4286H76.5714V70.2411ZM71.6653 64.1919L69.7144 62.2411V59.2856H67.4287V62.7142C67.4288 63.0173 67.5492 63.3079 67.7636 63.5222L70.0493 65.8079L71.6653 64.1919ZM68.9062 69.2366L70.5223 67.6206L71.6651 68.7635C71.8795 68.9777 71.9999 69.2684 72 69.5715V71.8572H69.7143V70.0446L68.9062 69.2366ZM58.2858 62.2411L56.335 64.1919L57.951 65.8079L60.2367 63.5222C60.451 63.3079 60.5715 63.0173 60.5715 62.7142V59.2856H58.2858V62.2411ZM56 69.5715C56.0001 69.2684 56.1205 68.9777 56.3349 68.7635L57.4777 67.6206L59.0937 69.2366L58.2857 70.0446V71.8572H56V69.5715Z" fill="url(#paint0_linear)"/>
<defs>
<linearGradient id="paint0_linear" x1="34" y1="30" x2="95" y2="144.5" gradientUnits="userSpaceOnUse">
<stop stop-color="white"/>
<stop offset="1" stop-color="white"/>
</linearGradient>
</defs>
</svg>
