<svg width="128" height="128" viewBox="0 0 128 128" fill="none" xmlns="http://www.w3.org/2000/svg">
<circle cx="64" cy="64" r="63.5" stroke="white"/>
<g clip-path="url(#clip0)">
<path fill-rule="evenodd" clip-rule="evenodd" d="M62.9086 56.8185C62.8374 56.5636 62.8701 56.2908 62.9997 56.06L64.4997 53.31L33.9297 36.2L36.2797 32L66.8697 49.12L68.4097 46.38C68.4733 46.2651 68.559 46.1638 68.6618 46.082C68.7646 46.0001 68.8826 45.9394 69.0089 45.9032C69.1352 45.8669 69.2674 45.856 69.3979 45.8709C69.5285 45.8858 69.6548 45.9263 69.7697 45.99L75.7697 49.35C75.8846 49.4137 75.9859 49.4993 76.0677 49.6021C76.1495 49.7049 76.2103 49.8229 76.2465 49.9492C76.2827 50.0755 76.2937 50.2077 76.2788 50.3382C76.2639 50.4688 76.2234 50.5951 76.1597 50.71L74.6197 53.45L75.3797 53.87L73.0297 58.07L72.2697 57.64L70.7397 60.39C70.6094 60.6204 70.3932 60.7898 70.1382 60.8611C69.8833 60.9323 69.6105 60.8996 69.3797 60.77L63.3797 57.42C63.1493 57.2898 62.9799 57.0735 62.9086 56.8185ZM84.4798 65.24H96.5498L96.5698 65.29C97.2984 65.2603 98.0096 65.518 98.55 66.0077C99.0903 66.4973 99.4167 67.1797 99.4587 67.9077C99.5006 68.6357 99.2549 69.3511 98.7744 69.8996C98.2938 70.4481 97.617 70.7859 96.8898 70.84L95.9998 71.4V73.4C95.9838 73.6245 95.9401 73.8462 95.8698 74.06V74.23C95.8325 74.3489 95.7891 74.4657 95.7398 74.58L95.6498 74.75L95.4698 75.05L95.3498 75.21L95.1198 75.47L94.9898 75.59C94.8998 75.68 94.7898 75.77 94.6798 75.86L94.5998 75.93C94.58 75.9442 94.56 75.9586 94.5397 75.9731C94.4171 76.061 94.2872 76.1542 94.1498 76.24L93.6698 76.52H93.5798L93.1498 76.74L93.0098 76.8L92.5698 77H92.4598C91.6598 77.32 90.8198 77.65 89.8198 78C88.3932 78.5014 86.9946 79.0789 85.6298 79.73L85.0898 80C84.4501 80.3437 83.8412 80.7418 83.2698 81.19L82.5498 80.48L83.1898 81.25L82.8898 81.51L82.7698 81.62C82.6815 81.7017 82.598 81.7886 82.5198 81.88L82.4098 82L82.1798 82.27L82.0798 82.39L81.8698 82.68C81.363 83.459 81.0986 84.3708 81.1098 85.3V85.8C81.1138 86.4625 81.3239 87.1072 81.711 87.6448C82.098 88.1824 82.6429 88.5862 83.2698 88.8L91.9998 91.8V97.4H77.7698L67.7698 93.52H66.2798L56.2798 97.4H42.0198V91.8L50.7398 88.8C51.3695 88.5892 51.9173 88.1865 52.3065 87.6484C52.6956 87.1104 52.9066 86.4641 52.9098 85.8V85.3C52.9185 84.2819 52.5956 83.2885 51.9898 82.47C51.8832 82.31 51.7632 82.15 51.6298 81.99L51.4498 81.77L51.0998 81.38C50.7898 81.0401 50.4899 80.7401 50.1899 80.4401L50.1898 80.44L49.5498 79.79C47.9612 79.2228 46.3144 78.8337 44.6398 78.63C41.7982 78.2275 39.0727 77.2327 36.6398 75.71L29.3198 71.12C28.8008 70.795 28.4017 70.3099 28.1828 69.7379C27.964 69.166 27.9372 68.5383 28.1067 67.9498C28.2761 67.3613 28.6325 66.844 29.122 66.476C29.6115 66.108 30.2074 65.9093 30.8198 65.91H46.6398V65.24H49.5998V64.38H58.5998V59.17H63.3698L69.5798 62.23L75.4798 59.17V64.38H84.4798V65.24ZM96.2598 68.8H96.5498V68.78C96.7567 68.78 96.9551 68.6979 97.1014 68.5516C97.2476 68.4053 97.3298 68.2069 97.3298 68C97.3298 67.7932 97.2476 67.5948 97.1014 67.4485C96.9551 67.3022 96.7567 67.22 96.5498 67.22H48.6398V67.89H30.8198C30.6429 67.8907 30.4709 67.9486 30.3296 68.055C30.1882 68.1615 30.0851 68.3108 30.0356 68.4806C29.9861 68.6505 29.9929 68.8318 30.0549 68.9975C30.117 69.1632 30.2309 69.3044 30.3798 69.4L37.6998 74C39.9057 75.3728 42.376 76.2655 44.9498 76.62C46.8544 76.8479 48.7245 77.3046 50.5198 77.98L50.7198 78.06L50.8698 78.22L51.6298 78.99L52.5798 79.99C52.6945 80.1119 52.7937 80.2285 52.8886 80.3401C52.9261 80.3842 52.963 80.4275 52.9998 80.47L53.1098 80.63L53.6198 81.3C54.4562 82.4652 54.9009 83.8658 54.8898 85.3V85.8C54.8889 86.886 54.5479 87.9445 53.9148 88.8269C53.2818 89.7093 52.3883 90.3713 51.3598 90.72L43.9998 93.21V95.37H55.8998L65.8998 91.49H68.1398L78.1398 95.37H89.9998V93.21L82.6898 90.74C81.6624 90.3909 80.7703 89.7285 80.1389 88.8459C79.5075 87.9634 79.1686 86.9052 79.1698 85.82V85.32C79.1569 83.9995 79.5362 82.7048 80.2598 81.6C80.3498 81.4601 80.4497 81.3301 80.5497 81.2002L80.5498 81.2L80.6798 81.03L80.9798 80.68L81.1298 80.52L81.4598 80.19L81.6098 80.05L81.6099 80.05C81.7299 79.94 81.8498 79.83 81.9798 79.73L82.0798 79.65C82.7068 79.1468 83.3759 78.6985 84.0798 78.31L84.6698 78C86.1605 77.3085 87.6858 76.6944 89.2398 76.16C89.4025 76.0982 89.5636 76.0372 89.7227 75.977C90.464 75.6966 91.1642 75.4317 91.7898 75.16L92.2598 74.95L92.3898 74.89L92.7098 74.72L93.2998 75.54L92.8198 74.67L93.1498 74.47C93.272 74.3984 93.389 74.3182 93.4998 74.23L93.7298 74.04L93.8998 73.86C93.9398 73.8111 93.9734 73.7574 93.9998 73.7L94.9998 73.85L93.9998 73.56C94.0109 73.5073 94.0109 73.4528 93.9998 73.4V70.26L96.2598 68.8Z" fill="url(#paint0_linear)"/>
<path d="M59.0298 58.33L50.8098 58.03L50.5498 54.72L58.0998 57.35L59.0298 58.33Z" fill="white"/>
<path d="M88.7197 43.06L86.3896 47.03L87.5896 47.18L91.4697 43.78L88.7197 43.06Z" fill="white"/>
<path d="M86.1798 48.46L83.0098 52L87.7698 48.17L86.1798 48.46Z" fill="white"/>
<path d="M57.9399 52.57L60.5899 56.76L58.6299 51.23L57.9399 52.57Z" fill="white"/>
<path d="M61.0096 57.96L55.5596 54.49L55.3496 55.27L55.0896 54.38L52.8896 54.57L54.8896 53.91L53.8696 52.46L55.1796 53.62L55.0696 52.61L55.4096 53.64L56.2696 52.65L55.6996 53.79L56.4596 53.69L55.8796 54.04L61.0096 57.96Z" fill="white"/>
<path d="M75.4399 57.33L81.1299 48.55L79.8699 48.21L81.2999 47.81L81.0399 44.25L82.0799 47.48L84.4299 45.85L82.5299 47.96L84.1799 47.8L82.5099 48.32L84.0899 49.73L82.2599 48.8L82.4099 50.02L81.8499 49.09L75.4399 57.33Z" fill="white"/>
</g>
<defs>
<linearGradient id="paint0_linear" x1="30.5" y1="32" x2="93" y2="104" gradientUnits="userSpaceOnUse">
<stop stop-color="white"/>
<stop offset="1" stop-color="white"/>
</linearGradient>
<clipPath id="clip0">
<rect width="71.33" height="65.37" fill="white" transform="translate(28 32)"/>
</clipPath>
</defs>
</svg>
