<svg width="18" height="26" viewBox="0 0 18 26" fill="none" xmlns="http://www.w3.org/2000/svg">
<path fill-rule="evenodd" clip-rule="evenodd" d="M2 8.63636C2 4.9712 4.9712 2 8.63636 2C12.3015 2 15.2727 4.9712 15.2727 8.63636C15.2727 10.9402 14.0987 12.9699 12.3164 14.1598C12.2557 14.1907 12.1989 14.2276 12.1465 14.2695C11.1283 14.9053 9.92522 15.2727 8.63636 15.2727C4.9712 15.2727 2 12.3015 2 8.63636ZM11.9684 16.6065C10.9431 17.0357 9.8174 17.2727 8.63636 17.2727C7.45566 17.2727 6.3303 17.0358 5.30523 16.6069L4.44611 23.0751L8.12171 20.8698C8.4384 20.6798 8.83402 20.6798 9.15071 20.8698L12.8266 23.0753L11.9684 16.6065ZM3.43092 15.5283C1.34668 13.9516 0 11.4512 0 8.63636C0 3.86663 3.86663 0 8.63636 0C13.4061 0 17.2727 3.86663 17.2727 8.63636C17.2727 11.4508 15.9265 13.9508 13.8428 15.5276L15.0821 24.8685C15.1326 25.2491 14.9607 25.625 14.6397 25.8358C14.3188 26.0466 13.9055 26.055 13.5763 25.8575L8.63621 22.8934L3.69616 25.8575C3.36689 26.055 2.95357 26.0466 2.63263 25.8358C2.31169 25.625 2.13981 25.249 2.19037 24.8683L3.43092 15.5283Z" fill="#27AE60"/>
</svg>
