<svg width="14" height="24" viewBox="0 0 14 24" fill="none" xmlns="http://www.w3.org/2000/svg">
<path d="M11.3077 0H2.69231C1.97826 0 1.29346 0.278708 0.788559 0.77481C0.283653 1.27091 0 1.94377 0 2.64537V20.6339C0 21.3355 0.283653 22.0083 0.788559 22.5044C1.29346 23.0005 1.97826 23.2792 2.69231 23.2792H11.3077C12.0217 23.2792 12.7065 23.0005 13.2114 22.5044C13.7163 22.0083 14 21.3355 14 20.6339V2.64537C14 1.94377 13.7163 1.27091 13.2114 0.77481C12.7065 0.278708 12.0217 0 11.3077 0V0ZM7 22.2211C6.10615 22.2211 5.38462 21.5121 5.38462 20.6339C5.38462 19.7556 6.10615 19.0467 7 19.0467C7.89385 19.0467 8.61539 19.7556 8.61539 20.6339C8.61539 21.5121 7.89385 22.2211 7 22.2211ZM11.8462 17.9885H2.15385V3.17444H11.8462V17.9885Z" fill="#27AE60"/>
</svg>
