<svg width="24" height="24" viewBox="0 0 24 24" fill="none" xmlns="http://www.w3.org/2000/svg">
<path d="M22.7905 17.3473V20.6342C22.7918 20.9394 22.7293 21.2414 22.607 21.521C22.4848 21.8006 22.3055 22.0516 22.0806 22.2579C21.8558 22.4641 21.5903 22.6212 21.3012 22.719C21.0122 22.8167 20.7059 22.853 20.402 22.8256C17.0305 22.4592 13.7919 21.3071 10.9465 19.4619C8.29919 17.7797 6.05475 15.5353 4.37255 12.888C2.52087 10.0296 1.36853 6.7753 1.00889 3.38863C0.981513 3.08565 1.01752 2.78028 1.11462 2.49198C1.21173 2.20367 1.3678 1.93874 1.5729 1.71406C1.778 1.48937 2.02764 1.30986 2.30592 1.18694C2.5842 1.06402 2.88503 1.00039 3.18925 1.00011H6.47621C7.00794 0.994873 7.52343 1.18317 7.9266 1.52989C8.32977 1.87662 8.5931 2.35811 8.66752 2.88463C8.80626 3.93654 9.06355 4.96937 9.43448 5.96342C9.5819 6.35559 9.6138 6.78179 9.52641 7.19152C9.43903 7.60126 9.23602 7.97736 8.94144 8.27526L7.54995 9.66674C9.10968 12.4098 11.3809 14.6809 14.1239 16.2407L15.5154 14.8492C15.8133 14.5546 16.1894 14.3516 16.5991 14.2642C17.0088 14.1768 17.435 14.2087 17.8272 14.3561C18.8213 14.7271 19.8541 14.9844 20.906 15.1231C21.4382 15.1982 21.9243 15.4663 22.2718 15.8764C22.6192 16.2865 22.8039 16.8099 22.7905 17.3473Z" stroke="#27AE60" stroke-width="2" stroke-linecap="round" stroke-linejoin="round"/>
</svg>
