<svg width="24" height="22" viewBox="0 0 24 22" fill="none" xmlns="http://www.w3.org/2000/svg">
<path fill-rule="evenodd" clip-rule="evenodd" d="M2.35147 2.35147C2.57652 2.12643 2.88174 2 3.2 2H20.8C21.1183 2 21.4235 2.12643 21.6485 2.35147C21.8736 2.57652 22 2.88174 22 3.2V9.8C22 12.4522 20.9464 14.9957 19.0711 16.8711C17.1957 18.7464 14.6522 19.8 12 19.8C10.6868 19.8 9.38642 19.5413 8.17317 19.0388C6.95991 18.5362 5.85752 17.7997 4.92893 16.8711C3.05357 14.9957 2 12.4522 2 9.8V3.2C2 2.88174 2.12643 2.57652 2.35147 2.35147ZM20.8 0H3.2C2.35131 0 1.53737 0.337142 0.937258 0.937258C0.337142 1.53737 0 2.35131 0 3.2V9.8C0 12.9826 1.26428 16.0348 3.51472 18.2853C4.62902 19.3996 5.95189 20.2835 7.4078 20.8866C8.86371 21.4896 10.4241 21.8 12 21.8C15.1826 21.8 18.2348 20.5357 20.4853 18.2853C22.7357 16.0348 24 12.9826 24 9.8V3.2C24 2.35131 23.6629 1.53737 23.0627 0.937258C22.4626 0.337142 21.6487 0 20.8 0ZM8.30672 7.99289C7.91619 7.60237 7.28303 7.60237 6.8925 7.99289C6.50198 8.38342 6.50198 9.01658 6.8925 9.40711L11.2925 13.8071C11.683 14.1976 12.3162 14.1976 12.7067 13.8071L17.1067 9.40711C17.4972 9.01658 17.4972 8.38342 17.1067 7.99289C16.7162 7.60237 16.083 7.60237 15.6925 7.99289L11.9996 11.6858L8.30672 7.99289Z" fill="#27AE60"/>
</svg>
